<?xml version="1.0" standalone="no"?>
<!DOCTYPE svg PUBLIC "-//W3C//DTD SVG 20010904//EN"
 "http://www.w3.org/TR/2001/REC-SVG-20010904/DTD/svg10.dtd">
<svg version="1.0" xmlns="http://www.w3.org/2000/svg"
 width="2048.000000pt" height="2048.000000pt" viewBox="0 0 2048.000000 2048.000000"
 preserveAspectRatio="xMidYMid meet">
<metadata>
Created by potrace 1.15, written by Peter Selinger 2001-2017
</metadata>
<g transform="translate(0.000000,2048.000000) scale(0.100000,-0.100000)"
fill="#000000" stroke="none">
<path d="M9998 13191 l-3 -1370 -71 62 c-39 34 -181 161 -315 283 -134 121
-374 334 -534 474 -159 140 -332 291 -383 337 l-94 83 -28 -23 c-58 -45 -318
-292 -319 -302 -1 -6 79 -80 176 -165 256 -224 982 -869 1163 -1034 85 -77
182 -166 216 -196 34 -30 61 -58 60 -62 0 -4 -98 -94 -216 -201 l-215 -194
-25 19 c-14 11 -164 147 -335 302 -688 626 -1271 1149 -1286 1154 -8 3 -359
-322 -367 -340 -2 -5 11 -20 29 -35 115 -97 652 -571 789 -697 91 -84 308
-279 483 -435 175 -156 317 -287 315 -291 -2 -5 -140 -133 -308 -286 -576
-524 -1211 -1117 -1203 -1124 4 -4 88 -80 186 -169 l179 -162 106 98 c59 54
172 159 252 233 378 353 985 902 1380 1249 129 113 327 289 441 391 113 102
320 287 460 411 424 376 1621 1483 1677 1551 11 14 -8 35 -138 154 -193 176
-186 171 -213 146 -12 -10 -139 -122 -282 -247 -143 -125 -332 -293 -420 -374
-250 -229 -633 -571 -639 -571 -3 0 -6 608 -6 1350 l0 1350 -255 0 -255 0 -2
-1369z"/>
<path d="M12459 12157 c-124 -111 -398 -355 -609 -542 -211 -187 -499 -444
-640 -570 -140 -127 -313 -282 -385 -344 -766 -672 -1954 -1753 -2413 -2195
l-94 -90 34 -30 c18 -16 101 -91 185 -167 l152 -139 223 206 c123 113 329 301
457 418 129 116 323 293 430 392 l196 181 3 -1423 2 -1424 255 0 255 0 0 1426
c0 927 3 1425 10 1422 5 -1 146 -125 312 -274 167 -149 447 -399 623 -555 176
-156 337 -299 357 -317 l38 -34 174 163 c96 90 173 167 172 170 0 3 -77 73
-171 155 -213 186 -914 816 -1140 1025 -93 87 -189 172 -212 191 -23 18 -42
36 -42 39 -1 4 99 95 220 202 l222 196 26 -20 c14 -11 154 -136 310 -277 157
-141 373 -336 480 -431 108 -96 309 -276 446 -400 138 -123 259 -233 271 -243
21 -18 22 -18 110 64 49 45 126 119 172 163 l83 80 -89 80 c-48 44 -255 231
-458 416 -203 185 -508 459 -679 609 -170 150 -311 275 -313 279 -1 3 107 103
240 221 833 739 1000 888 1153 1029 93 86 187 172 208 191 l38 35 -187 163
c-103 89 -189 162 -193 161 -3 0 -108 -91 -232 -202z"/>
</g>
</svg>
