<?xml version="1.0" standalone="no"?>
<!DOCTYPE svg PUBLIC "-//W3C//DTD SVG 20010904//EN"
 "http://www.w3.org/TR/2001/REC-SVG-20010904/DTD/svg10.dtd">
<svg version="1.0" xmlns="http://www.w3.org/2000/svg"
 width="2048.000000pt" height="2048.000000pt" viewBox="0 0 2048.000000 2048.000000"
 preserveAspectRatio="xMidYMid meet">
<metadata>
Created by potrace 1.15, written by Peter Selinger 2001-2017
</metadata>
<g transform="translate(0.000000,2048.000000) scale(0.100000,-0.100000)"
fill="#000000" stroke="none">
<path d="M9614 14735 c-532 -157 -944 -602 -1070 -1155 -85 -376 -35 -740 161
-1147 82 -171 157 -298 268 -453 244 -341 441 -558 906 -1003 162 -155 303
-290 314 -300 18 -18 24 -12 215 171 737 709 1066 1107 1287 1557 278 564 295
1030 55 1520 -190 388 -551 694 -958 811 -158 45 -264 24 -327 -65 l-30 -43
-5 -1511 -5 -1512 -23 -43 c-77 -144 -302 -145 -387 -1 -20 33 -20 57 -25
1549 -4 1129 -8 1520 -17 1535 -20 35 -77 83 -115 99 -53 23 -149 19 -244 -9z"/>
<path d="M7160 12025 c-157 -26 -362 -96 -490 -168 -205 -115 -415 -304 -533
-482 -155 -234 -261 -534 -228 -644 15 -51 59 -103 109 -127 36 -18 93 -19
1477 -19 l1440 0 44 -25 c65 -37 103 -89 109 -149 7 -72 -5 -117 -40 -157 -66
-75 75 -68 -1560 -74 l-1466 -5 -39 -31 c-56 -45 -86 -107 -80 -169 12 -119
110 -344 228 -521 92 -137 276 -324 404 -411 186 -125 424 -223 628 -258 126
-21 348 -21 486 -1 471 71 872 297 1466 825 144 128 535 504 717 688 l117 118
-282 266 c-470 442 -632 586 -878 775 -385 298 -747 485 -1069 554 -134 29
-428 37 -560 15z"/>
<path d="M12765 12029 c-336 -45 -745 -238 -1110 -524 -152 -119 -345 -288
-563 -494 -248 -234 -622 -602 -622 -612 0 -9 628 -613 820 -790 240 -220 490
-421 650 -524 71 -45 258 -143 345 -180 317 -135 670 -174 984 -109 387 80
760 331 980 659 109 162 211 391 227 508 11 81 -31 159 -107 197 -37 20 -69
20 -1464 20 -1264 0 -1430 2 -1463 15 -84 36 -126 106 -120 201 5 79 40 133
107 166 l46 23 1430 0 1430 0 42 22 c131 70 137 210 19 484 -88 206 -181 345
-337 500 -214 213 -477 355 -782 421 -107 23 -398 33 -512 17z"/>
<path d="M9773 9723 c-586 -583 -780 -819 -992 -1207 -317 -582 -361 -1110
-135 -1619 179 -404 534 -727 953 -867 125 -42 209 -43 280 -5 61 33 102 89
108 147 2 24 5 709 6 1523 l2 1480 24 42 c81 142 306 136 384 -10 l22 -42 5
-1515 c5 -1385 6 -1518 22 -1545 60 -110 189 -136 367 -76 239 80 435 204 621
390 460 461 595 1091 369 1726 -130 365 -395 773 -766 1176 -166 181 -823 819
-842 819 -5 0 -197 -188 -428 -417z"/>
</g>
</svg>
