<?xml version="1.0" standalone="no"?>
<!DOCTYPE svg PUBLIC "-//W3C//DTD SVG 20010904//EN"
 "http://www.w3.org/TR/2001/REC-SVG-20010904/DTD/svg10.dtd">
<svg version="1.0" xmlns="http://www.w3.org/2000/svg"
 width="799.000000pt" height="799.000000pt" viewBox="0 0 799.000000 799.000000"
 preserveAspectRatio="xMidYMid meet">
<metadata>
Created by potrace 1.14, written by Peter Selinger 2001-2017
</metadata>
<g transform="translate(0.000000,799.000000) scale(0.100000,-0.100000)"
fill="#000000" stroke="none">
<path d="M84 5463 c3 -8 6 -666 6 -1462 l0 -1448 3908 1 3907 1 0 1460 0 1460
-3913 1 c-3421 1 -3912 0 -3908 -13z m7652 -156 c11 -11 8 -2578 -4 -2586 -5
-3 -1690 -6 -3744 -5 l-3733 0 -1 1295 c0 1256 0 1294 18 1299 28 7 7456 5
7464 -3z"/>
<path d="M3266 4940 c-10 -4 -12 -86 -12 -390 l1 -385 103 -3 102 -3 0 176 c0
217 8 239 90 251 14 2 36 -1 50 -7 49 -19 54 -40 57 -229 1 -96 2 -179 2 -183
1 -4 47 -6 104 -5 l102 3 -1 205 c-1 190 -3 209 -24 258 -12 28 -38 65 -56 82
-78 68 -221 64 -291 -7 -12 -13 -24 -23 -27 -23 -3 0 -7 59 -8 131 l-3 131
-88 1 c-48 1 -94 0 -101 -3z"/>
<path d="M2254 4901 c-2 -2 -4 -120 -4 -260 0 -288 -3 -303 -61 -296 -35 5
-58 29 -59 63 0 21 -3 22 -104 22 l-104 0 5 -37 c12 -104 56 -169 140 -209 46
-21 71 -26 132 -26 117 0 195 44 235 132 19 41 21 66 23 310 1 146 0 274 -2
285 -4 19 -12 21 -100 20 -53 0 -99 -2 -101 -4z"/>
<path d="M2745 4742 c-93 -32 -160 -100 -184 -187 -16 -58 -13 -154 6 -211 23
-67 102 -145 168 -167 166 -55 335 4 401 140 25 53 28 68 27 153 -1 95 -26
153 -92 212 -83 75 -214 99 -326 60z m150 -168 c51 -14 78 -114 50 -181 -29
-68 -131 -78 -166 -16 -32 57 -19 158 24 188 22 15 57 19 92 9z"/>
<path d="M4103 4743 c-62 -32 -96 -67 -126 -132 -28 -59 -31 -76 -30 -151 1
-103 27 -177 81 -232 85 -88 233 -96 312 -16 l30 30 0 -41 0 -40 103 2 102 2
0 295 0 294 -100 0 -100 0 -5 -39 c-5 -40 -5 -40 -21 -17 -39 54 -179 80 -246
45z m215 -179 c50 -35 66 -117 34 -176 -15 -25 -34 -39 -75 -52 -26 -8 -83 18
-103 49 -22 34 -22 116 1 151 28 43 101 58 143 28z"/>
<path d="M4699 4750 c-4 -14 -5 -567 -1 -577 3 -9 34 -12 103 -12 l99 0 1 67
c0 37 0 111 -1 165 -1 54 4 114 10 133 14 40 58 67 98 60 82 -13 86 -26 88
-241 l1 -180 102 -3 c55 -1 102 1 102 5 6 41 3 359 -4 397 -22 124 -96 190
-219 195 -43 2 -98 -19 -145 -55 l-33 -25 0 38 0 38 -100 0 c-55 0 -101 -2
-101 -5z"/>
<path d="M5419 4745 c-1 -13 -1 -523 0 -558 l1 -27 102 2 103 3 0 175 c1 96 4
184 8 195 18 53 119 68 160 24 21 -22 22 -33 25 -211 l3 -187 104 1 104 0 -3
207 c-2 113 -7 220 -11 236 -8 32 -40 82 -65 103 -79 68 -221 64 -297 -7 -29
-28 -32 -27 -28 9 2 16 -1 33 -8 37 -18 11 -197 10 -198 -2z"/>
<path d="M1459 3855 c-1 -25 -1 -707 0 -717 1 -4 88 -6 194 -4 153 2 202 7
242 21 150 53 236 172 242 332 4 156 -55 270 -179 341 -66 37 -116 45 -310 46
-183 2 -188 1 -189 -19z m356 -170 c80 -31 121 -106 112 -205 -9 -102 -67
-155 -177 -163 -91 -7 -86 -20 -84 191 1 103 2 188 3 189 3 4 129 -6 146 -12z"/>
<path d="M2889 3870 c-1 -3 -2 -170 -3 -372 l-2 -366 217 0 217 0 4 63 c5 101
12 95 -118 95 l-114 0 0 293 0 293 -100 -1 c-55 0 -101 -2 -101 -5z"/>
<path d="M4333 3862 c-65 -23 -124 -64 -158 -108 -32 -42 -77 -142 -70 -154 3
-5 1 -11 -3 -14 -13 -8 -6 -157 8 -202 47 -145 152 -232 300 -251 81 -11 186
7 244 41 76 45 144 129 160 199 7 30 19 28 -132 31 -81 1 -84 0 -100 -26 -41
-70 -156 -80 -226 -19 -52 45 -68 171 -31 245 50 100 172 119 247 37 l34 -36
95 2 c52 1 100 2 107 2 31 2 -28 123 -87 179 -64 60 -133 86 -241 89 -73 3
-107 -1 -147 -15z"/>
<path d="M2400 3717 c-85 -30 -131 -70 -172 -151 -27 -53 -33 -181 -11 -246
48 -144 208 -225 363 -185 55 14 84 30 128 70 40 36 89 124 70 127 -7 0 -56 2
-108 3 -87 1 -97 0 -124 -23 -24 -19 -37 -23 -65 -18 -40 6 -71 37 -71 70 0
22 0 22 196 22 l196 -1 -6 72 c-10 133 -83 231 -196 261 -39 10 -169 10 -200
-1z m159 -167 c11 -8 21 -26 23 -39 3 -24 2 -25 -84 -25 -72 -1 -88 2 -88 14
1 54 101 88 149 50z"/>
<path d="M3537 3715 c-94 -33 -155 -126 -164 -249 -16 -207 98 -351 269 -340
40 3 107 33 127 58 21 25 30 19 28 -16 l-2 -33 104 0 104 0 1 292 c1 188 -3
294 -9 296 -8 3 -155 1 -192 -2 -7 -1 -10 -15 -9 -36 2 -19 2 -35 1 -35 -2 0
-17 13 -35 30 -52 49 -145 64 -223 35z m228 -201 c25 -29 27 -34 27 -79 0 -56
-3 -66 -31 -95 -31 -33 -80 -43 -119 -26 -51 22 -76 104 -52 172 24 68 126 84
175 28z"/>
<path d="M4929 3719 c-5 -3 -8 -126 -7 -295 l3 -289 100 0 100 0 1 151 c1 93
6 158 13 172 17 31 49 45 111 48 30 2 58 3 61 3 3 1 6 49 5 109 -1 100 -2 107
-21 107 -40 -1 -93 -27 -129 -62 -20 -20 -36 -32 -37 -27 0 5 -1 26 -1 47 0
20 -6 38 -12 38 -41 4 -180 3 -187 -2z"/>
<path d="M5402 3719 c-15 -6 -17 -27 -16 -202 2 -247 15 -295 99 -353 79 -56
207 -45 278 23 l27 27 0 -41 0 -41 103 1 102 2 1 285 c0 157 -1 290 -3 295 -3
8 -151 12 -195 6 -5 -1 -8 -78 -8 -171 0 -215 -14 -250 -100 -250 -85 0 -101
41 -100 248 1 86 1 162 0 167 0 11 -160 14 -188 4z"/>
<path d="M6086 3650 c1 -41 2 -81 3 -87 1 -9 30 -12 111 -10 61 1 110 0 110
-3 0 -6 -39 -49 -149 -168 l-76 -82 -2 -84 -1 -83 239 -1 c174 0 239 3 240 11
5 72 2 150 -6 156 -5 4 -61 7 -122 6 -62 0 -113 2 -113 5 0 3 52 59 115 125
63 66 115 127 116 135 5 70 2 150 -6 151 -5 1 -112 2 -236 3 l-225 1 2 -75z"/>
<path d="M1197 3332 c-50 -11 -88 -80 -73 -130 14 -43 71 -80 116 -76 8 1 25
2 37 3 32 2 83 57 83 91 0 43 -16 77 -45 96 -26 17 -83 25 -118 16z"/>
<path d="M6689 3322 c-64 -32 -79 -109 -30 -161 29 -30 44 -35 108 -33 69 2
114 63 97 129 -17 68 -105 100 -175 65z"/>
</g>
</svg>
